<svg xmlns="http://www.w3.org/2000/svg" width="164" height="35" fill="none"><path fill="#000" d="M52.106 11.275a1.537 1.537 0 0 0-1.711 1.533v6.321c0 1.943-1.57 3.524-3.5 3.524-1.929 0-3.498-1.58-3.498-3.524v-6.321a1.542 1.542 0 0 0-3.084 0v6.321c0 3.644 2.953 6.608 6.583 6.608 1.35 0 2.606-.41 3.652-1.113a1.54 1.54 0 0 0 2.931-.667v-11.15c0-.794-.601-1.448-1.373-1.532m11.19-.218c-1.35 0-2.606.41-3.652 1.113a1.54 1.54 0 0 0-2.931.667v11.15a1.542 1.542 0 0 0 3.084 0v-6.322c0-1.943 1.57-3.524 3.5-3.524 1.929 0 3.498 1.581 3.498 3.524v6.321a1.542 1.542 0 0 0 3.085 0v-6.32c0-3.645-2.954-6.609-6.584-6.609zm53.428.789a6.576 6.576 0 0 0-3.123-.789 6.53 6.53 0 0 0-3.641 1.105 1.54 1.54 0 0 0-2.927.675v11.149a1.543 1.543 0 0 0 3.084 0v-6.361a3.488 3.488 0 0 1 5.139-3.067 1.542 1.542 0 1 0 1.468-2.712zM79.915 22.682a4.275 4.275 0 0 1-4.27-4.27 4.275 4.275 0 0 1 4.27-4.27 4.275 4.275 0 0 1 4.27 4.27 4.275 4.275 0 0 1-4.27 4.27zm0-11.625c-4.055 0-7.355 3.3-7.355 7.354 0 4.056 3.3 7.355 7.355 7.355 4.055 0 7.354-3.3 7.354-7.355 0-4.055-3.299-7.354-7.354-7.354zM97.151 22.68a4.275 4.275 0 0 1-4.27-4.27 4.275 4.275 0 0 1 4.27-4.27 4.275 4.275 0 0 1 4.27 4.27 4.275 4.275 0 0 1-4.27 4.27zm0-11.624a7.31 7.31 0 0 0-4.27 1.373V5.717a1.541 1.541 0 0 0-3.084 0v18.27a1.541 1.541 0 0 0 3.037.372 7.313 7.313 0 0 0 4.317 1.406c4.055 0 7.354-3.3 7.354-7.355 0-4.055-3.299-7.354-7.354-7.354zm28.914 11.626a4.275 4.275 0 0 1-4.27-4.27 4.275 4.275 0 0 1 4.27-4.27 4.275 4.275 0 0 1 4.27 4.27 4.275 4.275 0 0 1-4.27 4.27zm0-11.625c-4.055 0-7.354 3.3-7.354 7.354 0 4.056 3.299 7.355 7.354 7.355a7.313 7.313 0 0 0 4.318-1.406 1.54 1.54 0 0 0 3.037-.374V18.55c0-.016-.002-.03-.003-.046l.003-.093c0-4.055-3.3-7.354-7.355-7.354zm30.58 11.625a4.275 4.275 0 0 1-4.27-4.27 4.275 4.275 0 0 1 4.27-4.27 4.275 4.275 0 0 1 4.271 4.27 4.275 4.275 0 0 1-4.271 4.27zm0-11.625c-4.055 0-7.354 3.3-7.354 7.354 0 4.056 3.299 7.355 7.354 7.355S164 22.466 164 18.41c0-4.055-3.3-7.354-7.355-7.354zm-9.467.151a1.543 1.543 0 0 0-2.044.762l-3.802 8.317-3.832-8.332a1.542 1.542 0 0 0-2.802 1.289l5.238 11.387a1.54 1.54 0 0 0 1.4.898h.002a1.544 1.544 0 0 0 1.401-.901l5.2-11.376a1.542 1.542 0 0 0-.761-2.044z"/><path fill="#bfbfbf" d="M8.363 28.474c0-.35.032-.693.09-1.027v-.001l.014-.07a5.65 5.65 0 0 1 .034-.169l.015-.064c.013-.057.026-.114.041-.17.681-2.693 2.984-6.04 5.677-8.959-2.736-2.965-5.874-5.489-8.122-6.434l-.024-.01-.017-.008H6.07a3.916 3.916 0 0 0-5.223 2.42H.845l-.006.019-.01.033C.268 15.805 0 17.652 0 20.112c0 7.848 6.352 14.213 14.195 14.234l.001-.001h.038a5.872 5.872 0 0 1-5.871-5.87z"/><path fill="#989898" d="m27.582 14.034-.01-.033-.006-.019a3.915 3.915 0 0 0-5.224-2.42l-.018.008-.024.01c-2.249.945-5.387 3.469-8.122 6.434 2.692 2.919 4.995 6.266 5.677 8.959.015.056.028.113.041.17l.015.064.034.168.014.07v.002a5.872 5.872 0 0 1-5.78 6.898h.037c7.844-.02 14.196-6.385 14.196-14.233 0-2.46-.269-4.307-.83-6.078z"/><path fill="#a7a7a7" d="M20.083 28.502c0-.35-.033-.693-.091-1.027l.001-.002-.014-.07a6.701 6.701 0 0 0-.035-.168l-.014-.064-.041-.17c-.682-2.693-2.985-6.04-5.678-8.959-2.692 2.919-4.995 6.266-5.677 8.959l-.04.17c-.006.021-.01.043-.015.064a5.59 5.59 0 0 0-.035.168l-.014.07.001.002a5.872 5.872 0 1 0 11.652 1.027z"/><path fill="#bfbfbf" d="M3.914.84a3.914 3.914 0 1 1 0 7.83 3.914 3.914 0 0 1 0-7.83z"/><path fill="#989898" d="M24.487.84a3.914 3.914 0 1 1 0 7.829 3.914 3.914 0 0 1 0-7.829z"/></svg>