<svg xmlns="http://www.w3.org/2000/svg" width="164" height="22" fill="none"><path fill="#000" d="m154.231 14.722-3.975 5.138a1.53 1.53 0 0 1-1.209.593h-4.125a.46.46 0 0 1-.363-.74l6.767-8.745-6.767-8.746a.459.459 0 0 1 .363-.74h4.125c.473 0 .919.22 1.209.594l3.975 5.137 3.975-5.137a1.53 1.53 0 0 1 1.209-.594h4.125a.46.46 0 0 1 .363.74l-6.767 8.746 6.767 8.745a.459.459 0 0 1-.363.74h-4.125a1.53 1.53 0 0 1-1.209-.594zm-19.113-3.068a5.603 5.603 0 0 1 5.601-5.582h.516a.612.612 0 0 0 .611-.612V2.094a.612.612 0 0 0-.611-.612h-.516c-2.069 0-3.994.617-5.601 1.677V2.094a.611.611 0 0 0-.611-.612h-3.364a.612.612 0 0 0-.612.612v17.747c0 .338.274.612.612.612h3.364a.611.611 0 0 0 .611-.612z"/><path fill="#000" fill-rule="evenodd" d="M113.659 12.402c0 2.313 1.83 4.094 3.972 4.094s3.972-1.78 3.972-4.094V2.094a.61.61 0 0 1 .611-.612h3.36a.61.61 0 0 1 .611.612v10.308c0 4.722-3.778 8.644-8.554 8.644s-8.555-3.922-8.555-8.644V2.094c0-.338.274-.612.611-.612h3.361a.61.61 0 0 1 .611.612z" clip-rule="evenodd"/><path fill="#000" d="M103.307 6.64c-.238.238-.623.235-.887.024a5.496 5.496 0 0 0-7.32.408 5.503 5.503 0 0 0 0 7.779 5.496 5.496 0 0 0 7.32.408c.264-.211.649-.215.887.024l2.376 2.377a.585.585 0 0 1-.013.852c-3.958 3.513-10.018 3.373-13.809-.42-3.936-3.938-3.936-10.323 0-14.261 3.791-3.793 9.851-3.933 13.809-.42a.585.585 0 0 1 .013.852zm-19.127 0c-.239.238-.624.235-.887.024a5.496 5.496 0 0 0-7.32.408 5.503 5.503 0 0 0 0 7.779 5.496 5.496 0 0 0 7.32.408c.263-.211.648-.215.887.024l2.375 2.377a.584.584 0 0 1-.012.852c-3.959 3.513-10.018 3.373-13.81-.42-3.935-3.938-3.935-10.323 0-14.261 3.792-3.793 9.851-3.933 13.81-.42a.584.584 0 0 1 .013.852z"/><path fill="#000" fill-rule="evenodd" d="M61.757 19.823c0 .338.274.612.611.612h3.36a.611.611 0 0 0 .612-.611V2.098a.611.611 0 0 0-.611-.61h-3.36a.611.611 0 0 0-.612.61v.804c-1.147-1.235-3.47-2.026-5.5-2.026-5.567 0-10.081 4.515-10.081 10.084 0 5.57 4.514 10.085 10.082 10.085 2.029 0 4.451-.89 5.5-2.026zm0-8.862a5.5 5.5 0 1 0-5.5 5.501 5.5 5.5 0 0 0 5.5-5.5zM0 10.961C0 4.908 4.908 0 10.961 0h2.797c.52 0 .942.422.942.942v5.424c0 .52-.422.942-.942.942H9.615a2.308 2.308 0 0 0-2.307 2.307v2.693a2.308 2.308 0 0 0 2.307 2.307h4.143c.52 0 .942.422.942.942v5.424c0 .52-.422.942-.942.942H10.96C4.908 21.923 0 17.015 0 10.96zm36.622 0c0 6.054-4.907 10.962-10.961 10.962h-2.796a.942.942 0 0 1-.942-.942v-5.424c0-.52.421-.942.942-.942h4.142a2.308 2.308 0 0 0 2.308-2.307V9.615a2.308 2.308 0 0 0-2.308-2.307h-4.142a.942.942 0 0 1-.942-.942V.942c0-.52.421-.942.942-.942h2.796c6.054 0 10.961 4.908 10.961 10.961z" clip-rule="evenodd"/></svg>