<svg xmlns="http://www.w3.org/2000/svg" width="116" height="27" fill="none"><path fill="#000" d="M29.134 12.537h7.502a.289.289 0 0 0 .157-.047.27.27 0 0 0 .043-.426l-1.672-1.63a.284.284 0 0 0-.223-.08l-.135.011-4.518.422 2.657-2.076a.279.279 0 0 0 .108-.203.272.272 0 0 0-.086-.213l-1.22-1.184a.285.285 0 0 0-.216-.08.29.29 0 0 0-.205.103L29.2 9.726l.428-4.404.01-.132a.267.267 0 0 0-.082-.216L27.89 3.337a.287.287 0 0 0-.309-.059.283.283 0 0 0-.127.102.272.272 0 0 0-.048.153v7.316zm-12.56 0h7.502l1.728-1.686V3.534a.272.272 0 0 0-.047-.154.283.283 0 0 0-.29-.117.287.287 0 0 0-.146.075L23.649 4.97a.272.272 0 0 0-.087.216l.011.131L24 9.721l-2.124-2.587a.284.284 0 0 0-.209-.105.292.292 0 0 0-.219.082L20.245 8.3a.277.277 0 0 0-.087.212.272.272 0 0 0 .108.204l2.657 2.07-4.519-.422-.135-.01a.29.29 0 0 0-.222.08l-1.673 1.63a.275.275 0 0 0-.06.301.289.289 0 0 0 .26.171zm20.081 1.562h-20.01a.288.288 0 0 0-.157.046.27.27 0 0 0-.042.425l1.665 1.625a.283.283 0 0 0 .222.08l.135-.01 7.424-.693-.503 6.664a.271.271 0 0 0 .075.208.283.283 0 0 0 .207.088h1.74a.288.288 0 0 0 .208-.088.275.275 0 0 0 .074-.209l-.502-6.663 7.641.694.135.01a.289.289 0 0 0 .222-.08l1.665-1.625a.274.274 0 0 0 .064-.301.277.277 0 0 0-.105-.125.288.288 0 0 0-.159-.046zm24.583-3.02a6.243 6.243 0 0 0-2.901-1.084c-1.384-.17-2.717-.021-3.979.591-1.261.612-2.105 1.57-2.653 2.802-.373.839-.508 1.73-.533 2.638-.034 1.11.086 2.198.533 3.227.466 1.072 1.182 1.952 2.211 2.561 1.462.863 3.053 1.057 4.712.795a6.41 6.41 0 0 0 3.262-1.482 5.305 5.305 0 0 0 1.337-1.832.138.138 0 0 0-.062-.181.146.146 0 0 0-.068-.017h-2.381a.159.159 0 0 0-.124.06 3.333 3.333 0 0 1-.717.703 4.291 4.291 0 0 1-2.553.784 3.723 3.723 0 0 1-2.242-.685 3.308 3.308 0 0 1-1.23-1.733c-.075-.23-.124-.467-.18-.715a.148.148 0 0 1 .032-.128.155.155 0 0 1 .12-.057h9.575a.158.158 0 0 0 .103-.036.151.151 0 0 0 .052-.094c.178-1.249 0-2.72-.506-3.865a5.4 5.4 0 0 0-1.809-2.252zm-.387 4.27h-6.918a.159.159 0 0 1-.15-.114.15.15 0 0 1-.004-.066c.28-1.636 1.449-2.859 3.228-2.968 2.21-.134 3.65 1.063 3.998 2.966a.15.15 0 0 1-.033.126.156.156 0 0 1-.12.055zm25.758-5.223c-1.825.026-3.278.658-4.114 2.346v.022l-.279-2.012a.15.15 0 0 0-.05-.093.158.158 0 0 0-.098-.038h-2.082a.158.158 0 0 0-.11.044.15.15 0 0 0-.045.106v11.88a.148.148 0 0 0 .046.107.155.155 0 0 0 .11.044h2.36a.156.156 0 0 0 .108-.044.15.15 0 0 0 .045-.106V16.73a6.65 6.65 0 0 1 .382-2.11c.197-.551.47-1.061.92-1.469.545-.493 1.22-.692 1.936-.796.292-.043.588-.06.886-.084a.156.156 0 0 0 .101-.048.148.148 0 0 0 .04-.102v-1.843a.148.148 0 0 0-.046-.108.156.156 0 0 0-.11-.044zM46.508 22.44a.32.32 0 0 0 .227.092h3.224c.05 0 .097-.02.132-.053a.18.18 0 0 0 .055-.13v-1.924a.18.18 0 0 0-.055-.13.19.19 0 0 0-.132-.053H47.37a.216.216 0 0 1-.151-.061.206.206 0 0 1-.062-.147v-8.018h2.587a.19.19 0 0 0 .133-.053.18.18 0 0 0 .055-.13V9.91a.18.18 0 0 0-.055-.13.19.19 0 0 0-.133-.053h-2.587V6.173a.182.182 0 0 0-.092-.156.195.195 0 0 0-.183-.01l-2.073.937a.185.185 0 0 0-.078.068.179.179 0 0 0-.03.097v2.617h-.985a.19.19 0 0 0-.133.053.18.18 0 0 0-.054.13v1.924c0 .048.019.095.054.13a.19.19 0 0 0 .133.053h.986v8.513a.31.31 0 0 0 .092.22zm28.771-11.513a6.165 6.165 0 0 0-3.058-.752c-1.709 0-3.06.653-4.057 1.956l-.338-5.899a.18.18 0 0 0-.096-.151.19.19 0 0 0-.182 0l-1.93.923a.179.179 0 0 0-.096.158V22.35a.18.18 0 0 0 .055.13.19.19 0 0 0 .133.052h1.956a.186.186 0 0 0 .12-.043.18.18 0 0 0 .063-.108l.292-1.613a4.462 4.462 0 0 0 1.662 1.395c.685.343 1.492.514 2.421.513a5.943 5.943 0 0 0 3.058-.788 5.507 5.507 0 0 0 2.104-2.206c.505-.946.758-2.031.758-3.256 0-1.288-.252-2.402-.758-3.34a5.283 5.283 0 0 0-2.107-2.159zm-.92 8.753c-.7.816-1.614 1.224-2.742 1.224s-2.037-.413-2.728-1.238c-.691-.825-1.037-1.89-1.036-3.196 0-1.29.346-2.338 1.036-3.145.692-.807 1.6-1.21 2.728-1.212 1.128 0 2.041.408 2.741 1.225.7.816 1.049 1.868 1.048 3.155 0 1.308-.35 2.37-1.048 3.186zm25.352-9.33h-1.949a.188.188 0 0 0-.12.043.178.178 0 0 0-.063.108l-.29 1.634a4.376 4.376 0 0 0-1.662-1.416c-.683-.34-1.488-.51-2.415-.512a5.952 5.952 0 0 0-3.026.774 5.49 5.49 0 0 0-2.11 2.187c-.512.943-.767 2.034-.768 3.271 0 1.269.253 2.376.756 3.32a5.249 5.249 0 0 0 2.098 2.164 6.148 6.148 0 0 0 3.05.75c.91 0 1.707-.183 2.39-.547a4.912 4.912 0 0 0 1.684-1.451l.268 1.7a.177.177 0 0 0 .063.111.187.187 0 0 0 .122.044h1.97a.19.19 0 0 0 .133-.053.179.179 0 0 0 .054-.13V10.534a.178.178 0 0 0-.054-.13.187.187 0 0 0-.131-.052zm-3.361 9.316c-.691.826-1.6 1.239-2.728 1.238-1.127 0-2.041-.41-2.74-1.225-.7-.816-1.049-1.877-1.049-3.184 0-1.289.35-2.341 1.049-3.158.698-.816 1.612-1.224 2.74-1.224 1.128 0 2.037.404 2.728 1.212.69.808 1.035 1.856 1.035 3.145 0 1.305-.345 2.37-1.035 3.196z"/></svg>