<svg xmlns="http://www.w3.org/2000/svg" width="104" height="29" fill="none"><path fill="#000" fill-rule="evenodd" d="M103.113 4.907c-.366-.423-.859-.634-1.52-.634s-1.17.226-1.521.691c-.353.45-.536 1.126-.536 2.014v6.42c-.816-.901-1.663-1.548-2.521-1.985a6.052 6.052 0 0 0-1.872-.563 9.458 9.458 0 0 0-1.296-.085c-2.155 0-3.901.76-5.238 2.282-1.323 1.52-1.985 3.632-1.985 6.351-.01 1.211.16 2.417.507 3.577.336 1.098.815 2.054 1.463 2.871a6.905 6.905 0 0 0 2.31 1.889 6.443 6.443 0 0 0 2.887.66c.453.003.906-.04 1.351-.126.277-.045.55-.111.817-.2a7.013 7.013 0 0 0 1.845-.95 10.85 10.85 0 0 0 1.73-1.635v.423c0 .802.199 1.407.577 1.843a1.952 1.952 0 0 0 1.479.648c.605 0 1.099-.21 1.478-.62.38-.422.578-1.041.578-1.871V6.755c0-.804-.184-1.424-.536-1.846l.003-.002zm-4.382 17.717c-.38.817-.887 1.422-1.506 1.816a3.857 3.857 0 0 1-2.085.591h-.014a3.77 3.77 0 0 1-2.084-.618c-.634-.422-1.14-1.043-1.507-1.859-.366-.83-.55-1.83-.55-3.013 0-1.114.17-2.099.52-2.927.34-.844.833-1.492 1.452-1.943.634-.466 1.337-.675 2.14-.675h.043a3.577 3.577 0 0 1 2.07.665c.634.436 1.141 1.07 1.521 1.9.38.83.563 1.83.563 2.986 0 1.238-.183 2.267-.563 3.083m-13.445.174c-.266-.238-.633-.366-1.086-.366-.409 0-.718.1-.943.282-.548.507-.985.915-1.324 1.21-.359.3-.735.577-1.126.832a4.5 4.5 0 0 1-1.238.564c-.463.128-.942.19-1.422.183a2.426 2.426 0 0 1-.325-.014 3.88 3.88 0 0 1-1.801-.564c-.648-.38-1.157-.943-1.55-1.675-.38-.761-.578-1.634-.593-2.62h8.494c1.14 0 2.026-.169 2.646-.479.634-.338.943-1.042.943-2.128 0-1.181-.309-2.337-.914-3.478-.607-1.126-1.508-2.056-2.733-2.774-1.211-.717-2.66-1.07-4.365-1.07h-.127c-1.253.014-2.408.225-3.436.62a7.593 7.593 0 0 0-2.718 1.803 8.08 8.08 0 0 0-1.663 2.83 10.88 10.88 0 0 0-.577 3.576c0 2.732.775 4.873 2.323 6.464 1.463 1.507 3.492 2.295 6.07 2.38.141.013.295.013.45.013 1.212 0 2.296-.154 3.239-.478.943-.325 1.719-.718 2.338-1.197.621-.492 1.087-1 1.397-1.52.31-.522.465-.987.465-1.367 0-.437-.138-.788-.421-1.028l-.003.001zm-10.14-7.955c.69-.747 1.578-1.114 2.66-1.114h.014c1.13 0 2.04.367 2.73 1.1.69.732 1.1 1.843 1.197 3.337h-7.869c.142-1.463.565-2.577 1.268-3.325m-8.321 7.591c-.422 0-.732.1-.958.282a43.16 43.16 0 0 1-1.323 1.21c-.354.3-.724.577-1.11.832-.387.25-.81.44-1.253.564a4.99 4.99 0 0 1-1.423.183 2.399 2.399 0 0 1-.324-.014 3.88 3.88 0 0 1-1.802-.564 4.127 4.127 0 0 1-1.535-1.675c-.395-.761-.593-1.634-.607-2.62h8.506c1.127 0 2.015-.169 2.648-.479.62-.338.93-1.042.93-2.128 0-1.181-.295-2.337-.9-3.478-.606-1.126-1.521-2.056-2.732-2.774-1.211-.717-2.675-1.07-4.365-1.07h-.141a9.918 9.918 0 0 0-3.437.62 7.406 7.406 0 0 0-2.704 1.803 7.913 7.913 0 0 0-1.676 2.83 10.893 10.893 0 0 0-.582 3.575c0 2.732.79 4.872 2.338 6.464 1.463 1.507 3.478 2.295 6.056 2.38.155.013.295.013.45.013 1.226 0 2.295-.154 3.239-.479.943-.324 1.719-.717 2.338-1.197.634-.492 1.084-.997 1.397-1.52.313-.523.465-.986.465-1.367 0-.436-.14-.788-.407-1.028-.282-.238-.647-.365-1.085-.365l-.003.002zm-9.07-7.59c.69-.746 1.578-1.113 2.66-1.113h.015c1.125 0 2.04.367 2.73 1.1.706.731 1.1 1.843 1.212 3.337h-7.886c.154-1.463.577-2.577 1.267-3.325M9.047 25.508V15.145c.296.029.577.043.874.043a7.489 7.489 0 0 0 3.857-1.055v11.375c0 .971-.224 1.69-.661 2.168-.437.478-1.014.718-1.719.718-.69 0-1.238-.24-1.69-.732-.436-.478-.661-1.197-.661-2.154M49.954 4.907c-.366-.423-.872-.634-1.507-.634-.665 0-1.17.226-1.52.69-.367.45-.533 1.127-.533 2.015v6.42c-.817-.901-1.662-1.548-2.521-1.985a6.186 6.186 0 0 0-1.874-.563 9.448 9.448 0 0 0-1.295-.085c-2.154 0-3.915.761-5.238 2.282-1.324 1.52-1.987 3.63-1.987 6.353-.008 1.21.158 2.414.492 3.577a8.681 8.681 0 0 0 1.479 2.87 6.906 6.906 0 0 0 2.31 1.889 6.441 6.441 0 0 0 2.886.661c.454 0 .906-.041 1.351-.126.278-.045.55-.112.817-.2a7.001 7.001 0 0 0 1.845-.953c.578-.423 1.14-.972 1.733-1.634v.423c0 .802.197 1.407.577 1.843a2.024 2.024 0 0 0 2.943.029c.38-.423.564-1.042.564-1.872V6.755c0-.804-.17-1.424-.522-1.846v-.002zm-4.366 17.716c-.38.817-.886 1.422-1.52 1.817a3.802 3.802 0 0 1-2.07.59h-.014a3.766 3.766 0 0 1-2.084-.618c-.648-.422-1.14-1.042-1.507-1.858-.366-.83-.55-1.831-.55-3.014 0-1.113.17-2.098.508-2.926.352-.845.83-1.493 1.463-1.944.62-.465 1.338-.675 2.128-.675h.055c.739 0 1.459.232 2.057.665.648.436 1.155 1.07 1.534 1.9.367.831.564 1.83.564 2.986 0 1.239-.2 2.267-.564 3.084m-24.867-9.499v.532c.774-1.014 1.606-1.746 2.506-2.224.915-.465 1.959-.705 3.141-.705 1.14 0 2.168.253 3.069.747a4.712 4.712 0 0 1 2.015 2.112c.293.537.484 1.125.563 1.732.094.78.136 1.566.127 2.351v8.073c0 .873-.213 1.534-.606 1.972-.395.45-.915.675-1.55.675-.647 0-1.167-.225-1.576-.69-.409-.451-.606-1.113-.606-1.957v-7.224c0-1.437-.197-2.535-.591-3.296-.395-.76-1.197-1.141-2.38-1.141-.76 0-1.5.242-2.113.69a3.996 3.996 0 0 0-1.407 1.915c-.212.648-.31 1.845-.31 3.634v5.422c0 .886-.212 1.534-.62 1.986-.409.436-.931.66-1.577.66-.634 0-1.142-.224-1.55-.689-.408-.451-.606-1.113-.606-1.957V13.202c0-.832.185-1.45.55-1.845.352-.41.846-.62 1.48-.62a1.97 1.97 0 0 1 1.027.266c.323.194.583.479.746.819.183.365.267.802.267 1.31M9.075.669C12-.387 15.34-.33 17.848 1.837c.465.437.997.986 1.21 1.633.254.818-.887-.083-1.042-.196-.817-.535-1.634-.985-2.548-1.295-4.93-1.52-9.59 1.224-12.492 5.492C1.765 9.357.977 11.343.33 13.527c-.071.238-.128.548-.254.759-.127.24-.056-.648-.056-.676a18.54 18.54 0 0 1 .505-2.647C1.865 6.315 4.821 2.446 9.075.669z" clip-rule="evenodd"/><path fill="#000" fill-rule="evenodd" d="M12.89 12.203a3.57 3.57 0 1 1 1.563-4.802 3.56 3.56 0 0 1-1.564 4.802z" clip-rule="evenodd"/></svg>